<svg xmlns="http://www.w3.org/2000/svg" viewBox="0 0 200 200" width="200" height="200">
  <defs>
    <linearGradient id="eq1" x1="0%" y1="100%" x2="0%" y2="0%">
      <stop offset="0%" style="stop-color:#6366f1"/>
      <stop offset="100%" style="stop-color:#a855f7"/>
    </linearGradient>
    <linearGradient id="eq2" x1="0%" y1="100%" x2="0%" y2="0%">
      <stop offset="0%" style="stop-color:#ec4899"/>
      <stop offset="100%" style="stop-color:#f43f5e"/>
    </linearGradient>
    <linearGradient id="eq3" x1="0%" y1="100%" x2="0%" y2="0%">
      <stop offset="0%" style="stop-color:#14b8a6"/>
      <stop offset="100%" style="stop-color:#22c55e"/>
    </linearGradient>
    <linearGradient id="eq4" x1="0%" y1="100%" x2="0%" y2="0%">
      <stop offset="0%" style="stop-color:#f59e0b"/>
      <stop offset="100%" style="stop-color:#fbbf24"/>
    </linearGradient>
  </defs>
  
  <!-- Background -->
  <circle cx="100" cy="100" r="95" fill="#0f172a"/>
  
  <!-- Center point -->
  <circle cx="100" cy="100" r="10" fill="white"/>
  
  <!-- EQ bars arranged radially - 4 color groups -->
  
  <!-- Purple section (0-90 degrees) -->
  <g fill="url(#eq1)">
    <rect x="98" y="25" width="4" height="35" rx="2" transform="rotate(0, 100, 100)"/>
    <rect x="98" y="30" width="4" height="25" rx="2" transform="rotate(15, 100, 100)"/>
    <rect x="98" y="20" width="4" height="40" rx="2" transform="rotate(30, 100, 100)"/>
    <rect x="98" y="35" width="4" height="22" rx="2" transform="rotate(45, 100, 100)"/>
    <rect x="98" y="25" width="4" height="32" rx="2" transform="rotate(60, 100, 100)"/>
    <rect x="98" y="30" width="4" height="28" rx="2" transform="rotate(75, 100, 100)"/>
  </g>
  
  <!-- Pink section (90-180 degrees) -->
  <g fill="url(#eq2)">
    <rect x="98" y="22" width="4" height="38" rx="2" transform="rotate(90, 100, 100)"/>
    <rect x="98" y="32" width="4" height="26" rx="2" transform="rotate(105, 100, 100)"/>
    <rect x="98" y="28" width="4" height="30" rx="2" transform="rotate(120, 100, 100)"/>
    <rect x="98" y="18" width="4" height="42" rx="2" transform="rotate(135, 100, 100)"/>
    <rect x="98" y="35" width="4" height="24" rx="2" transform="rotate(150, 100, 100)"/>
    <rect x="98" y="26" width="4" height="32" rx="2" transform="rotate(165, 100, 100)"/>
  </g>
  
  <!-- Green section (180-270 degrees) -->
  <g fill="url(#eq3)">
    <rect x="98" y="30" width="4" height="28" rx="2" transform="rotate(180, 100, 100)"/>
    <rect x="98" y="20" width="4" height="38" rx="2" transform="rotate(195, 100, 100)"/>
    <rect x="98" y="34" width="4" height="24" rx="2" transform="rotate(210, 100, 100)"/>
    <rect x="98" y="25" width="4" height="33" rx="2" transform="rotate(225, 100, 100)"/>
    <rect x="98" y="28" width="4" height="30" rx="2" transform="rotate(240, 100, 100)"/>
    <rect x="98" y="22" width="4" height="36" rx="2" transform="rotate(255, 100, 100)"/>
  </g>
  
  <!-- Orange section (270-360 degrees) -->
  <g fill="url(#eq4)">
    <rect x="98" y="32" width="4" height="26" rx="2" transform="rotate(270, 100, 100)"/>
    <rect x="98" y="24" width="4" height="34" rx="2" transform="rotate(285, 100, 100)"/>
    <rect x="98" y="18" width="4" height="42" rx="2" transform="rotate(300, 100, 100)"/>
    <rect x="98" y="30" width="4" height="28" rx="2" transform="rotate(315, 100, 100)"/>
    <rect x="98" y="26" width="4" height="32" rx="2" transform="rotate(330, 100, 100)"/>
    <rect x="98" y="35" width="4" height="23" rx="2" transform="rotate(345, 100, 100)"/>
  </g>
</svg>
