<svg xmlns="http://www.w3.org/2000/svg" viewBox="0 0 200 200" width="200" height="200">
  <!-- Background circle -->
  <circle cx="100" cy="100" r="95" fill="#1a1a2e"/>

  <!-- Robot head -->
  <rect x="45" y="55" width="110" height="100" rx="15" ry="15" fill="#4a90d9"/>

  <!-- Antenna -->
  <line x1="100" y1="55" x2="100" y2="30" stroke="#4a90d9" stroke-width="6" stroke-linecap="round"/>
  <circle cx="100" cy="25" r="10" fill="#ff6b6b"/>

  <!-- Ears/side panels -->
  <rect x="30" y="80" width="15" height="40" rx="5" ry="5" fill="#357abd"/>
  <rect x="155" y="80" width="15" height="40" rx="5" ry="5" fill="#357abd"/>

  <!-- Face plate -->
  <rect x="55" y="70" width="90" height="70" rx="10" ry="10" fill="#5ba3ec"/>

  <!-- Nerdy glasses frame - thick black frames -->
  <rect x="50" y="82" width="45" height="35" rx="8" ry="8" fill="none" stroke="#1a1a2e" stroke-width="6"/>
  <rect x="105" y="82" width="45" height="35" rx="8" ry="8" fill="none" stroke="#1a1a2e" stroke-width="6"/>

  <!-- Glasses bridge -->
  <line x1="95" y1="100" x2="105" y2="100" stroke="#1a1a2e" stroke-width="6"/>

  <!-- Glasses temples (arms) -->
  <line x1="50" y1="95" x2="35" y2="90" stroke="#1a1a2e" stroke-width="5" stroke-linecap="round"/>
  <line x1="150" y1="95" x2="165" y2="90" stroke="#1a1a2e" stroke-width="5" stroke-linecap="round"/>

  <!-- Lens shine -->
  <ellipse cx="62" cy="92" rx="8" ry="5" fill="rgba(255,255,255,0.3)"/>
  <ellipse cx="117" cy="92" rx="8" ry="5" fill="rgba(255,255,255,0.3)"/>

  <!-- Eyes behind glasses -->
  <circle cx="72" cy="100" r="12" fill="#1a1a2e"/>
  <circle cx="128" cy="100" r="12" fill="#1a1a2e"/>
  <circle cx="75" cy="97" r="5" fill="#ffffff"/>
  <circle cx="131" cy="97" r="5" fill="#ffffff"/>

  <!-- Smile -->
  <path d="M 75 130 Q 100 145 125 130" fill="none" stroke="#1a1a2e" stroke-width="4" stroke-linecap="round"/>

  <!-- Cheek blush -->
  <ellipse cx="60" cy="120" rx="8" ry="5" fill="rgba(255,107,107,0.4)"/>
  <ellipse cx="140" cy="120" rx="8" ry="5" fill="rgba(255,107,107,0.4)"/>

  <!-- Bolts -->
  <circle cx="55" cy="145" r="5" fill="#357abd"/>
  <circle cx="145" cy="145" r="5" fill="#357abd"/>
</svg>
