P1
# CURS resource ID 44830, hotspot (7, 7)
16 16
0 0 0 0 0 1 1 1 1 1 0 0 0 0 0 0
0 0 0 1 1 0 0 1 1 1 1 1 0 0 0 0
0 0 1 0 0 0 0 1 1 1 1 1 1 0 0 0
0 1 0 0 0 0 0 1 1 1 1 1 1 1 0 0
0 1 0 0 0 0 0 1 1 1 1 1 1 1 0 0
1 0 0 0 0 0 0 1 1 1 1 1 1 1 1 0
1 0 0 0 0 0 0 1 1 1 1 1 1 1 1 0
1 1 1 1 1 1 1 1 1 1 1 1 1 1 1 0
1 1 1 1 1 1 1 1 0 0 0 0 0 0 1 0
1 1 1 1 1 1 1 1 0 0 0 0 0 0 1 0
0 1 1 1 1 1 1 1 0 0 0 0 0 1 0 0
0 1 1 1 1 1 1 1 0 0 0 0 0 1 0 0
0 0 1 1 1 1 1 1 0 0 0 0 1 0 0 0
0 0 0 1 1 1 1 1 0 0 1 1 0 0 0 0
0 0 0 0 0 1 1 1 1 1 0 0 0 0 0 0
0 0 0 0 0 0 0 0 0 0 0 0 0 0 0 0
