P1
# CURS resource ID 45048, hotspot (1, 1)
16 16
0 0 0 0 0 0 0 0 0 0 0 0 0 0 0 0
0 1 0 0 0 0 0 0 0 0 0 0 0 0 0 0
0 1 1 0 0 0 0 0 0 0 0 0 0 0 0 0
0 1 1 1 0 0 0 0 0 0 0 0 0 0 0 0
0 1 1 1 1 0 0 0 0 0 0 0 0 0 0 0
0 1 1 1 1 1 0 0 0 0 0 0 0 0 0 0
0 1 1 1 1 1 1 0 0 0 0 0 0 0 0 0
0 1 1 1 1 1 1 1 0 1 1 1 1 1 1 0
0 1 1 1 1 1 1 1 1 1 1 1 1 1 1 0
0 1 1 1 1 1 0 0 0 1 0 0 0 0 1 0
0 1 1 0 1 1 0 0 0 1 1 1 1 1 1 0
0 1 0 0 0 1 1 0 0 1 0 0 0 0 1 0
0 0 0 0 0 1 1 0 0 1 1 1 1 1 1 0
0 0 0 0 0 0 1 1 0 1 0 0 0 0 1 0
0 0 0 0 0 0 1 1 0 1 1 1 1 1 1 0
0 0 0 0 0 0 0 0 0 0 0 0 0 0 0 0
