P1
# CURS resource ID 44826, hotspot (8, 9)
16 16
0 0 0 0 0 0 0 1 1 0 0 0 0 0 0 0
0 0 0 1 1 0 1 0 0 1 1 1 0 0 0 0
0 0 1 0 0 1 1 0 0 1 0 0 1 0 0 0
0 0 1 0 0 1 1 0 0 1 0 0 1 0 1 0
0 0 0 1 0 0 1 0 0 1 0 0 1 1 0 1
0 0 0 1 0 0 1 0 0 1 0 0 1 0 0 1
0 0 0 0 1 0 0 0 0 0 0 0 1 0 0 1
0 0 0 0 1 0 0 0 0 0 0 0 0 0 0 1
0 0 0 1 1 0 0 0 0 0 0 0 0 0 1 0
0 0 1 0 0 0 0 0 0 0 0 0 0 0 1 0
0 0 1 0 0 0 0 0 0 0 0 0 0 0 1 0
0 0 1 0 0 0 0 0 0 0 0 0 0 1 0 0
0 0 0 1 0 0 0 0 0 0 0 0 0 1 0 0
0 0 0 0 1 0 0 0 0 0 0 0 1 0 0 0
0 0 0 0 0 1 0 0 0 0 0 0 1 0 0 0
0 0 0 0 0 1 0 0 0 0 0 0 1 0 0 0
